<?xml version="1.0" encoding="UTF-8"?>
<svg id="Calque_2" data-name="Calque 2" xmlns="http://www.w3.org/2000/svg" xmlns:xlink="http://www.w3.org/1999/xlink" viewBox="0 0 214.15 235.99">
  <defs>
    <style>
      .cls-1 {
        fill: #05a9de;
      }

      .cls-1, .cls-2, .cls-3 {
        stroke-width: 0px;
      }

      .cls-4, .cls-5 {
        fill: none;
        stroke: #000;
        stroke-miterlimit: 10;
      }

      .cls-2 {
        fill: #1730ae;
      }

      .cls-5 {
        stroke-width: .5px;
      }

      .cls-3 {
        fill: #0050ff;
      }
    </style>
  </defs>
  <path class="cls-5" d="M65.9,175.77s.7,4.31-1.33,3.34-1.59-1.02-1.59-1.02"/>
  <path class="cls-5" d="M56.04,183.24s1.86,6.97,5.74,4.11,3.63-4.11,3.63-4.11c0-.42-.07-3.71-.07-3.71"/>
  <line class="cls-5" x1="59.48" y1="185.61" x2="59.48" y2="188.03"/>
  <line class="cls-5" x1="60.76" y1="183.14" x2="61.35" y2="187.66"/>
  <line class="cls-5" x1="62.79" y1="182.65" x2="63.08" y2="186.41"/>
  <path class="cls-5" d="M64.47,186.82s-19.56,7.2-23.32,12.74-4.15,12.07-3.16,13.65l.99,1.58"/>
  <path class="cls-5" d="M171.79,175.77s.7,4.31-1.33,3.34-1.59-1.02-1.59-1.02"/>
  <path class="cls-5" d="M161.93,183.24s1.86,6.97,5.74,4.11,3.63-4.11,3.63-4.11c0-.42-.07-3.71-.07-3.71"/>
  <line class="cls-5" x1="165.37" y1="185.61" x2="165.37" y2="188.03"/>
  <line class="cls-5" x1="166.66" y1="183.14" x2="167.25" y2="187.66"/>
  <line class="cls-5" x1="168.69" y1="182.65" x2="168.98" y2="186.41"/>
  <path class="cls-5" d="M170.37,186.82s-19.56,7.2-23.32,12.74-4.15,12.07-3.16,13.65l.99,1.58"/>
  <g>
    <path class="cls-2" d="M124.96,76.56c-1.4-.09,1.19,4.35,1.19,4.35,0,0-9.49,5.54-11.08,11.47s-14.64,44.31-14.64,50.24.2,11.08-1.78,12.26-7.52,3.96-7.52,6.92-.59,6.73,2.57,8.31,7.57-3.02,7.81-4.01,3.13-5.14,2.93-6.63.4-9.59,1.88-12.46,9.79-26.6,10.88-26.8,1.58-.3,1.58.4-1.95,30.03-3.26,32.93-2.64,4.22-4.48,4.75-18.46,5.54-24,8.18-17.93,8.7-20.04,12.4-7.12,9.49-5.27,13.71c1.85,4.22,10.81,6.07,12.92,6.33s1.58,1.58,5.27,2.9,37.71-.53,45.1,0,13.19-3.16,16.09-2.37,1.58-.53,7.38,1.32,8.18.26,7.65-2.37-8.18-7.38-10.02-9.49-5.27-6.07-7.65-4.22-1.58,4.75-2.9,5.8-11.08-2.64-11.08-2.64c0,0,22.95-5.27,23.74-7.12s8.44-7.65,6.86-18.2-.79-13.98-.79-13.98l12.92-12.13s1.85-2.37,1.32-6.33-4.48-36.66-4.48-36.66c0,0-.26-3.43-4.22-7.12s-12.13-7.89-12.13-9.75-1.05-3.18-1.05-3.18c0,0-12.79,3.73-21.69,3.18Z"/>
    <path class="cls-5" d="M119.42,92.04s-3.76,12.66-2.18,19.78l1.58,7.12"/>
    <path class="cls-5" d="M147.31,97.18s6.53,30.46,6.73,32.04-22.35,27.69-24.73,29.08-10.66,0-14.33.79-10.59,4.75-10.99,7.12-1.98,4.35,1.38,3.76,14.04-2.37,18.59-1.58,10.48-5.14,12.46-6.73,30.79-25.25,30.79-25.25"/>
    <path class="cls-4" d="M124.56,139.91s-.99-1.38-1.19,0"/>
    <line class="cls-5" x1="131.29" y1="87.95" x2="145.92" y2="82.41"/>
    <path class="cls-5" d="M123.37,85.84s2.24,1.71,2.77,2.11"/>
    <path class="cls-5" d="M85.84,193.3s13.85-10.29,25.32-7.32,21.67,6.92,24.09,5.54"/>
    <image width="382" height="386" transform="translate(179.11 7.2) rotate(-180) scale(.22 -.22)" xlink:href="head3.png"/>
  </g>
  <g>
    <path class="cls-1" d="M63.63,96.59c-1.4-.09,1.19,4.35,1.19,4.35,0,0-9.49,5.54-11.08,11.47s-14.64,44.31-14.64,50.24.2,11.08-1.78,12.26-7.52,3.96-7.52,6.92-.59,6.73,2.57,8.31,7.57-3.02,7.81-4.01,3.13-5.14,2.93-6.63.4-9.59,1.88-12.46,9.79-26.6,10.88-26.8,1.58-.3,1.58.4-1.95,30.03-3.26,32.93-2.64,4.22-4.48,4.75-18.46,5.54-24,8.18-17.93,8.7-20.04,12.4-7.12,9.49-5.27,13.71c1.85,4.22,10.81,6.07,12.92,6.33s1.58,1.58,5.27,2.9,37.71-.53,45.1,0,13.19-3.16,16.09-2.37,1.58-.53,7.38,1.32,8.18.26,7.65-2.37-8.18-7.38-10.02-9.49-5.27-6.07-7.65-4.22-1.58,4.75-2.9,5.8-11.08-2.64-11.08-2.64c0,0,22.95-5.27,23.74-7.12s8.44-7.65,6.86-18.2-.79-13.98-.79-13.98l12.92-12.13s1.85-2.37,1.32-6.33-4.48-36.66-4.48-36.66c0,0-.26-3.43-4.22-7.12s-12.13-7.89-12.13-9.75-1.05-3.18-1.05-3.18c0,0-12.79,3.73-21.69,3.18Z"/>
    <path class="cls-5" d="M58.09,112.07s-3.76,12.66-2.18,19.78l1.58,7.12"/>
    <path class="cls-5" d="M85.98,117.21s6.53,30.46,6.73,32.04-22.35,27.69-24.73,29.08-10.66,0-14.33.79-10.59,4.75-10.99,7.12-1.98,4.35,1.38,3.76,14.04-2.37,18.59-1.58,10.48-5.14,12.46-6.73,30.79-25.25,30.79-25.25"/>
    <path class="cls-4" d="M63.24,159.93s-.99-1.38-1.19,0"/>
    <line class="cls-5" x1="69.96" y1="107.98" x2="84.6" y2="102.44"/>
    <path class="cls-5" d="M62.05,105.87s2.24,1.71,2.77,2.11"/>
    <path class="cls-5" d="M24.52,213.32s13.85-10.29,25.32-7.32,21.67,6.92,24.09,5.54"/>
    <image width="382" height="386" transform="translate(146.04) rotate(-180) scale(.36 -.36)" xlink:href="head2.png"/>
  </g>
  <g>
    <path class="cls-3" d="M163.78,110.25c-1.4-.09,1.19,4.35,1.19,4.35,0,0-9.49,5.54-11.08,11.47s-14.64,44.31-14.64,50.24.2,11.08-1.78,12.26-7.52,3.96-7.52,6.92-.59,6.73,2.57,8.31,7.57-3.02,7.81-4.01,3.13-5.14,2.93-6.63.4-9.59,1.88-12.46c1.48-2.87,9.79-26.6,10.88-26.8s1.58-.3,1.58.4-1.95,30.03-3.26,32.93-2.64,4.22-4.48,4.75-18.46,5.54-24,8.18-17.93,8.7-20.04,12.4c-2.11,3.69-7.12,9.49-5.27,13.71,1.85,4.22,10.81,6.07,12.92,6.33s1.58,1.58,5.27,2.9,37.71-.53,45.1,0,13.19-3.16,16.09-2.37,1.58-.53,7.38,1.32,8.18.26,7.65-2.37-8.18-7.38-10.02-9.49-5.27-6.07-7.65-4.22-1.58,4.75-2.9,5.8-11.08-2.64-11.08-2.64c0,0,22.95-5.27,23.74-7.12s8.44-7.65,6.86-18.2c-1.58-10.55-.79-13.98-.79-13.98l12.92-12.13s1.85-2.37,1.32-6.33-4.48-36.66-4.48-36.66c0,0-.26-3.43-4.22-7.12s-12.13-7.89-12.13-9.75-1.05-3.18-1.05-3.18c0,0-12.79,3.73-21.69,3.18Z"/>
    <path class="cls-5" d="M158.24,125.73s-3.76,12.66-2.18,19.78l1.58,7.12"/>
    <path class="cls-5" d="M186.13,130.87s6.53,30.46,6.73,32.04-22.35,27.69-24.73,29.08-10.66,0-14.33.79-10.59,4.75-10.99,7.12-1.98,4.35,1.38,3.76,14.04-2.37,18.59-1.58,10.48-5.14,12.46-6.73,30.79-25.25,30.79-25.25"/>
    <path class="cls-4" d="M163.38,173.6s-.99-1.38-1.19,0"/>
    <path class="cls-5" d="M139.84,192.19s.7,4.31-1.33,3.34-1.59-1.02-1.59-1.02"/>
    <path class="cls-5" d="M129.98,199.66s1.86,6.97,5.74,4.11c3.88-2.86,3.63-4.11,3.63-4.11,0-.42-.07-3.71-.07-3.71"/>
    <line class="cls-5" x1="133.42" y1="202.03" x2="133.42" y2="204.45"/>
    <line class="cls-5" x1="134.71" y1="199.56" x2="135.3" y2="204.08"/>
    <line class="cls-5" x1="136.74" y1="199.07" x2="137.03" y2="202.83"/>
    <line class="cls-5" x1="170.11" y1="121.64" x2="184.74" y2="116.1"/>
    <path class="cls-5" d="M162.19,119.53s2.24,1.71,2.77,2.11"/>
    <path class="cls-5" d="M124.66,226.99s13.85-10.29,25.32-7.32,21.67,6.92,24.09,5.54"/>
    <path class="cls-5" d="M138.42,203.24s-19.56,7.2-23.32,12.74-4.15,12.07-3.16,13.65l.99,1.58"/>
    <image width="382" height="386" transform="translate(202.39 44.87) rotate(171.33) scale(.2 -.2)" xlink:href="head1.png"/>
  </g>
</svg>